<svg width="320" height="320" viewBox="0 0 320 320" fill="none" xmlns="http://www.w3.org/2000/svg">
<circle cx="160" cy="160" r="160" fill="#F1EFEB"/>
<path fill-rule="evenodd" clip-rule="evenodd" d="M214.784 134.784H223.626V115.655H214.784V134.784ZM219.205 149.512L223.626 137.727H214.784L219.205 149.512ZM220.679 102.412H217.731C215.325 102.357 214.706 103.649 214.784 105.354V112.712H223.626V105.354C223.637 103.571 223.088 102.423 220.679 102.412Z" fill="#08542D"/>
<path d="M82.3413 237.438C69.8372 237.438 63 228.151 63 216.281C63 204.412 69.8372 195.125 82.3413 195.125C91.5808 195.125 97.8021 200.045 100.451 208.532L95.6462 211.669C94.2911 204.781 90.2257 200.168 82.4029 200.168C72.9787 200.168 68.6669 206.872 68.6669 216.281C68.6669 225.691 72.9787 232.395 82.4029 232.395C90.2257 232.395 94.2911 227.782 95.6462 220.894L100.451 224.03C97.8021 232.518 91.5808 237.438 82.3413 237.438Z" fill="#003554"/>
<path d="M118.824 237.561C110.57 237.561 104.78 231.472 104.78 222.062C104.78 212.653 110.57 206.564 118.824 206.564C127.078 206.564 132.93 212.653 132.93 222.062C132.93 231.472 127.078 237.561 118.824 237.561ZM118.824 233.071C123.937 233.071 127.509 229.566 127.509 222.062C127.509 214.498 123.937 211.054 118.824 211.054C113.773 211.054 110.262 214.498 110.262 222.062C110.262 229.566 113.773 233.071 118.824 233.071Z" fill="#003554"/>
<path d="M151.059 227.844C148.903 227.844 146.932 227.413 145.269 226.614C144.53 227.598 143.668 229.012 143.668 230.304C143.668 231.903 144.53 232.702 147.61 232.702H156.603C162.023 232.702 165.411 234.855 165.411 239.344C165.411 245.002 159.867 249 149.827 249C142.189 249 137.385 246.478 137.385 242.542C137.385 239.775 139.91 238.114 142.189 237.192C140.28 236.577 139.294 235.162 139.294 233.194C139.294 230.857 141.08 228.274 143.975 225.937C141.019 224.092 139.294 220.955 139.294 217.204C139.294 210.992 144.037 206.564 151.059 206.564C153.03 206.564 154.816 206.933 156.356 207.548L158.204 200.414L163.748 202.382L158.266 208.532C161.099 210.377 162.824 213.514 162.824 217.204C162.824 223.415 158.081 227.844 151.059 227.844ZM151.059 223.723C154.816 223.723 157.65 221.263 157.65 217.204C157.65 213.145 154.816 210.685 151.059 210.685C147.363 210.685 144.468 213.145 144.468 217.204C144.468 221.263 147.363 223.723 151.059 223.723ZM149.827 244.756C156.603 244.756 160.422 243.034 160.422 240.082C160.422 238.176 158.943 237.315 155.925 237.315H143.729C142.744 238.176 141.696 239.467 141.696 240.882C141.696 243.28 144.468 244.756 149.827 244.756Z" fill="#003554"/>
<path d="M175.695 236.946H170.336V207.179H175.695V215.113C176.865 210.5 180.068 206.564 185.92 206.564C191.772 206.564 195.406 210.07 195.406 216.404V236.946H190.108V217.696C190.108 213.821 188.569 211.115 183.518 211.115C177.789 211.115 175.695 215.113 175.695 220.094V236.946Z" fill="#003554"/>
<path d="M208.719 202.382H203.36V195.74H208.719V202.382ZM208.719 236.946H203.36V207.179H208.719V236.946Z" fill="#003554"/>
<path d="M226.753 237.622C221.887 237.622 218.437 234.424 218.437 229.32V211.361H213.633V207.179H218.437V203.366L223.796 199.43V207.179H233.59V211.361H223.796V227.721C223.796 231.534 225.582 232.456 227.923 232.456C230.572 232.456 232.42 230.242 233.22 228.397L235.007 233.686C233.713 235.716 230.88 237.622 226.753 237.622Z" fill="#003554"/>
<path d="M247.746 237.622C242.88 237.622 239.431 234.424 239.431 229.32V211.361H234.626V207.179H239.431V203.366L244.789 199.43V207.179H254.583V211.361H244.789V227.721C244.789 231.534 246.576 232.456 248.916 232.456C251.565 232.456 253.413 230.242 254.214 228.397L256 233.686C254.706 235.716 251.873 237.622 247.746 237.622Z" fill="#003554"/>
<path d="M149.338 160.174C146.33 162.757 142.961 164.739 139.232 166.12C135.502 167.501 131.638 168.192 127.637 168.192C124.57 168.192 121.607 167.787 118.75 166.976C115.923 166.195 113.261 165.084 110.764 163.643C108.298 162.171 106.042 160.414 103.997 158.372C101.952 156.33 100.193 154.078 98.7188 151.616C97.2751 149.123 96.1473 146.466 95.3352 143.643C94.5532 140.79 94.1622 137.832 94.1622 134.769C94.1622 131.706 94.5532 128.748 95.3352 125.895C96.1473 123.042 97.2751 120.384 98.7188 117.922C100.193 115.43 101.952 113.162 103.997 111.12C106.042 109.078 108.298 107.336 110.764 105.895C113.261 104.424 115.923 103.297 118.75 102.517C121.607 101.706 124.57 101.3 127.637 101.3C131.638 101.3 135.502 101.991 139.232 103.373C142.961 104.724 146.33 106.706 149.338 109.318L142.48 120.58C140.585 118.538 138.345 116.976 135.758 115.895C133.171 114.784 130.465 114.228 127.637 114.228C124.78 114.228 122.103 114.769 119.607 115.85C117.111 116.931 114.93 118.403 113.065 120.264C111.201 122.096 109.727 124.273 108.644 126.796C107.561 129.288 107.02 131.946 107.02 134.769C107.02 137.592 107.561 140.249 108.644 142.742C109.727 145.204 111.201 147.366 113.065 149.228C114.93 151.09 117.111 152.562 119.607 153.643C122.103 154.724 124.78 155.264 127.637 155.264C130.465 155.264 133.171 154.724 135.758 153.643C138.345 152.532 140.585 150.955 142.48 148.913L149.338 160.174Z" fill="#08542D"/>
<path d="M192.858 134.063C192.858 131.821 192.417 129.659 191.535 127.577C190.693 125.455 189.53 123.593 188.046 121.991C186.562 120.349 184.818 119.048 182.813 118.087C180.848 117.086 178.742 116.586 176.497 116.586C174.251 116.586 172.125 116.966 170.12 117.727C168.155 118.488 166.431 119.609 164.947 121.09C163.504 122.572 162.361 124.414 161.518 126.616C160.676 128.778 160.255 131.26 160.255 134.063C160.255 136.746 160.676 139.168 161.518 141.33C162.361 143.452 163.504 145.274 164.947 146.796C166.431 148.317 168.155 149.499 170.12 150.339C172.125 151.14 174.251 151.541 176.497 151.541C178.742 151.541 180.848 151.06 182.813 150.099C184.818 149.098 186.562 147.797 188.046 146.195C189.53 144.554 190.693 142.692 191.535 140.61C192.417 138.488 192.858 136.305 192.858 134.063ZM209.4 158.688C209.4 163.212 208.538 167.456 206.814 171.42C205.089 175.384 202.723 178.848 199.716 181.811C196.748 184.774 193.259 187.116 189.249 188.838C185.279 190.559 181.028 191.42 176.497 191.42L168.256 191.3V174.904L176.376 175.024C178.943 175.024 181.128 174.684 182.933 174.003C184.738 173.362 186.261 172.461 187.505 171.3C188.748 170.179 189.73 168.878 190.452 167.396C191.214 165.915 191.816 164.353 192.257 162.712C191.615 163.753 190.693 164.614 189.49 165.294C188.287 165.935 186.943 166.455 185.459 166.856C184.016 167.296 182.492 167.597 180.888 167.757C179.324 167.917 177.86 167.997 176.497 167.997C171.965 167.997 167.694 167.216 163.684 165.655C159.714 164.093 156.225 161.871 153.217 158.988C150.25 156.065 147.904 152.502 146.179 148.297C144.455 144.093 143.593 139.348 143.593 134.063C143.593 129.218 144.455 124.714 146.179 120.55C147.904 116.386 150.25 112.782 153.217 109.739C156.225 106.696 159.714 104.313 163.684 102.592C167.694 100.87 171.965 100.009 176.497 100.009C178.582 100.009 180.647 100.269 182.692 100.79C184.738 101.31 186.723 102.031 188.647 102.952C190.572 103.873 192.397 104.954 194.121 106.195C195.886 107.437 197.53 108.778 199.054 110.219L205.43 102.592H209.4V158.688Z" fill="#003554"/>
<path d="M172.768 90.4288L172.736 84.7862C173.779 83.886 174.372 82.5906 174.364 81.2069C174.353 79.2512 173.111 77.4871 171.273 76.816L154.298 70.6169C151.998 69.7769 149.443 69.7957 147.159 70.6675L130.424 77.0491C128.602 77.7438 127.383 79.5202 127.394 81.4701C127.405 83.417 128.644 85.1796 130.474 85.8522L136.76 88.1703L136.821 96.5299C137.137 100.948 144.155 103.225 150.923 103.187C157.69 103.149 164.682 100.798 164.95 96.3507L164.915 88.0545L170.35 85.9971L170.375 90.4453C169.572 91.0337 169.065 92.1749 169.072 93.4314C169.081 95.0915 169.091 96.8078 171.606 96.7936C174.12 96.7795 174.111 95.0632 174.101 93.4031C174.098 92.1451 173.58 91.0082 172.768 90.4288ZM140.437 89.5259L147.28 92.0478C149.572 92.8953 152.132 92.8838 154.423 92.0209L161.26 89.4322L161.297 96.1155C161.304 97.2582 157.262 99.4748 150.905 99.5107C144.55 99.5465 140.483 97.38 140.476 96.2328L140.437 89.5259ZM149.087 88.2561L135.055 83.0871C134.929 83.0405 134.773 82.9881 134.598 82.9315C133.794 82.6684 132.296 82.1787 132.292 81.4455C132.288 80.6974 133.712 80.2223 134.562 79.9366C134.744 79.8764 134.905 79.8208 135.037 79.7728L149.006 74.4416C149.569 74.2255 150.159 74.1172 150.758 74.1139C151.356 74.1105 151.942 74.2107 152.503 74.416L166.673 79.593C166.788 79.6353 166.928 79.6833 167.086 79.7326C167.857 79.9929 169.464 80.5234 169.468 81.236C169.469 81.5228 169.003 82.0413 166.691 82.9103L152.582 88.2438C151.464 88.667 150.213 88.671 149.087 88.2561Z" fill="#003554"/>
</svg>
