<svg width="320" height="320" viewBox="0 0 320 320" fill="none" xmlns="http://www.w3.org/2000/svg">
<circle cx="160" cy="160" r="160" fill="#003554"/>
<path d="M68.9538 175.21C65.6578 175.21 62.6978 174.474 60.0738 173.002C57.4498 171.498 55.3858 169.434 53.8818 166.81C52.4098 164.186 51.6738 161.242 51.6738 157.978C51.6738 154.682 52.4098 151.706 53.8818 149.05C55.3858 146.394 57.4498 144.314 60.0738 142.81C62.6978 141.306 65.6418 140.554 68.9058 140.554C72.4578 140.554 75.4978 141.354 78.0258 142.954C80.5858 144.554 82.6018 146.826 84.0738 149.77L82.6818 150.394C79.8978 144.858 75.3218 142.09 68.9538 142.09C65.9778 142.09 63.2898 142.778 60.8898 144.154C58.5218 145.498 56.6658 147.386 55.3218 149.818C53.9778 152.218 53.3058 154.938 53.3058 157.978C53.3058 160.986 53.9778 163.69 55.3218 166.09C56.6658 168.458 58.5218 170.314 60.8898 171.658C63.2898 173.002 65.9778 173.674 68.9538 173.674C71.6738 173.674 74.1378 173.066 76.3458 171.85C78.5538 170.602 80.3298 168.89 81.6738 166.714C83.0178 164.506 83.7858 161.994 83.9778 159.178H68.2818V157.738H85.6098L85.5618 158.602C85.3698 161.866 84.5378 164.762 83.0658 167.29C81.5938 169.786 79.6258 171.738 77.1618 173.146C74.7298 174.522 71.9938 175.21 68.9538 175.21ZM107.491 170.794C106.723 172.17 105.603 173.258 104.131 174.058C102.691 174.826 101.043 175.21 99.1867 175.21C97.3947 175.21 95.7787 174.842 94.3387 174.106C92.9307 173.37 91.8267 172.362 91.0267 171.082C90.2267 169.77 89.8267 168.314 89.8267 166.714C89.8267 165.082 90.2267 163.626 91.0267 162.346C91.8587 161.066 92.9787 160.074 94.3867 159.37C95.8267 158.634 97.4267 158.266 99.1867 158.266C101.043 158.266 102.691 158.65 104.131 159.418C105.571 160.186 106.675 161.242 107.443 162.586V158.026C107.443 155.722 106.739 153.898 105.331 152.554C103.923 151.178 102.019 150.49 99.6187 150.49C98.2107 150.49 96.8187 150.746 95.4427 151.258C94.0667 151.738 92.7707 152.458 91.5547 153.418L90.7867 152.17C92.1307 151.146 93.5707 150.378 95.1067 149.866C96.6427 149.322 98.1467 149.05 99.6187 149.05C102.435 149.05 104.691 149.866 106.387 151.498C108.115 153.13 108.979 155.306 108.979 158.026V174.682H107.587L107.491 170.794ZM99.3787 173.818C101.747 173.818 103.683 173.162 105.187 171.85C106.691 170.506 107.443 168.794 107.443 166.714C107.443 164.634 106.691 162.938 105.187 161.626C103.683 160.282 101.747 159.61 99.3787 159.61C97.0107 159.61 95.0747 160.266 93.5707 161.578C92.0987 162.89 91.3627 164.602 91.3627 166.714C91.3627 168.794 92.1147 170.506 93.6187 171.85C95.1227 173.162 97.0427 173.818 99.3787 173.818ZM116.496 139.642H118.032V174.682H116.496V139.642ZM137.004 175.21C134.7 175.21 132.556 174.682 130.572 173.626C128.588 172.57 126.988 171.05 125.772 169.066C124.556 167.082 123.948 164.762 123.948 162.106C123.948 159.61 124.508 157.37 125.628 155.386C126.748 153.402 128.3 151.85 130.284 150.73C132.268 149.61 134.508 149.05 137.004 149.05C139.308 149.05 141.42 149.546 143.34 150.538C145.26 151.498 146.796 152.954 147.948 154.906C149.132 156.826 149.724 159.162 149.724 161.914C149.724 162.298 149.708 162.586 149.676 162.778H125.436C125.532 165.018 126.124 166.97 127.212 168.634C128.332 170.298 129.74 171.578 131.436 172.474C133.164 173.338 135.02 173.77 137.004 173.77C139.148 173.77 141.116 173.322 142.908 172.426C144.7 171.498 146.172 170.09 147.324 168.202L148.524 169.018C147.212 171.098 145.548 172.65 143.532 173.674C141.548 174.698 139.372 175.21 137.004 175.21ZM148.236 161.386C148.172 158.986 147.612 156.97 146.556 155.338C145.532 153.674 144.188 152.442 142.524 151.642C140.86 150.842 139.02 150.442 137.004 150.442C134.86 150.442 132.924 150.906 131.196 151.834C129.468 152.762 128.092 154.058 127.068 155.722C126.076 157.386 125.532 159.274 125.436 161.386H148.236Z" fill="white"/>
<path d="M163.958 175.21C161.43 175.21 159.158 174.474 157.142 173.002C155.158 171.498 153.782 169.306 153.014 166.426L154.454 165.994C155.19 168.586 156.406 170.522 158.102 171.802C159.83 173.05 161.782 173.674 163.958 173.674C166.55 173.674 168.646 173.018 170.246 171.706C171.878 170.362 172.694 168.618 172.694 166.474C172.694 164.298 171.878 162.57 170.246 161.29C168.646 160.01 166.422 158.906 163.574 157.978C161.59 157.338 159.942 156.65 158.63 155.914C157.318 155.178 156.262 154.234 155.462 153.082C154.662 151.93 154.262 150.49 154.262 148.762C154.262 147.194 154.678 145.786 155.51 144.538C156.342 143.29 157.494 142.314 158.966 141.61C160.47 140.906 162.182 140.554 164.102 140.554C166.406 140.554 168.47 141.194 170.294 142.474C172.118 143.754 173.414 145.658 174.182 148.186L172.694 148.57C171.99 146.394 170.87 144.778 169.334 143.722C167.798 142.634 166.054 142.09 164.102 142.09C161.638 142.09 159.638 142.714 158.102 143.962C156.598 145.178 155.846 146.778 155.846 148.762C155.846 150.234 156.198 151.45 156.902 152.41C157.606 153.37 158.518 154.138 159.638 154.714C160.79 155.29 162.294 155.882 164.15 156.49C167.222 157.514 169.67 158.81 171.494 160.378C173.35 161.914 174.278 163.93 174.278 166.426C174.278 168.122 173.83 169.642 172.934 170.986C172.07 172.33 170.854 173.37 169.286 174.106C167.718 174.842 165.942 175.21 163.958 175.21ZM188.974 175.21C186.382 175.21 184.27 174.346 182.638 172.618C181.038 170.858 180.238 168.522 180.238 165.61V149.578H181.774V165.514C181.774 168.074 182.446 170.09 183.79 171.562C185.166 173.034 186.99 173.77 189.262 173.77C190.83 173.77 192.254 173.354 193.534 172.522C194.846 171.658 195.87 170.49 196.606 169.018C197.374 167.546 197.758 165.93 197.758 164.17V149.578H199.294V174.682H197.806L197.758 169.114C196.958 170.97 195.774 172.458 194.206 173.578C192.638 174.666 190.894 175.21 188.974 175.21ZM224.387 158.746C224.387 156.186 223.699 154.17 222.323 152.698C220.979 151.226 219.155 150.49 216.851 150.49C215.283 150.49 213.843 150.922 212.531 151.786C211.251 152.618 210.227 153.77 209.459 155.242C208.723 156.714 208.355 158.33 208.355 160.09V174.682H206.819V149.578H208.355V155.194C209.155 153.338 210.339 151.85 211.907 150.73C213.507 149.61 215.267 149.05 217.187 149.05C219.779 149.05 221.875 149.93 223.475 151.69C225.107 153.418 225.923 155.738 225.923 158.65V174.682H224.387V158.746Z" fill="#FFD166"/>
<path d="M212.304 85V92.7644M212.304 226.236V234M270.937 114.904L279.332 108.583M270.937 203.23L279.332 209.52M305.111 159.051H294.8M212.304 197.314C235.084 197.314 251.276 176.203 251.276 159.051C251.276 141.898 235.084 122.764 212.304 122.764" stroke="#FFD166" stroke-width="5" stroke-linecap="round" stroke-linejoin="round"/>
<path d="M108.983 194.553C108.983 194.553 108.439 194.553 90.6492 194.553H62.2891M100.679 136.062C98.9732 121.039 85.9823 109.359 70.2095 109.359C53.2766 109.359 39.5497 122.821 39.5497 139.427C39.5497 143.101 40.2213 146.62 41.4505 149.873M41.4505 149.873C40.009 149.596 38.5192 149.45 36.9948 149.45C24.2951 149.45 14 159.547 14 172.002C14 184.457 24.2951 194.553 36.9948 194.553H40.8272M41.4505 149.873C44.4789 150.457 38.1273 146.499 41.4505 149.873Z" stroke="white" stroke-width="5" stroke-linecap="round"/>
</svg>
