<svg width="647" height="129" viewBox="0 0 647 129" fill="none" xmlns="http://www.w3.org/2000/svg">
<path d="M408 31.9752C408 30.4557 408.638 28.775 409.888 27.8753C410.471 27.4548 411.414 27.6219 412.086 27.6219C413.79 27.6219 415.193 27.8417 416.771 28.5663C419.35 29.7496 422.031 31.4525 424.344 33.1269C425.673 34.0892 427.121 34.4628 428.685 34.4628C430.644 34.4628 432.782 33.237 432.782 30.9617C432.782 30.251 433.582 30.1168 433.582 29.2803C433.582 28.5202 433.582 27.7601 433.582 27" stroke="#FFD951" stroke-width="9" stroke-linecap="round"/>
<path d="M408 31.9752C408 30.4557 408.638 28.775 409.888 27.8753C410.471 27.4548 411.414 27.6219 412.086 27.6219C413.79 27.6219 415.193 27.8417 416.771 28.5663C419.35 29.7496 422.031 31.4525 424.344 33.1269C425.673 34.0892 427.121 34.4628 428.685 34.4628C430.644 34.4628 432.782 33.237 432.782 30.9617C432.782 30.251 433.582 30.1168 433.582 29.2803C433.582 28.5202 433.582 27.7601 433.582 27" stroke="#FFD951" stroke-width="9" stroke-linecap="round"/>
<path d="M408 31.9752C408 30.4557 408.638 28.775 409.888 27.8753C410.471 27.4548 411.414 27.6219 412.086 27.6219C413.79 27.6219 415.193 27.8417 416.771 28.5663C419.35 29.7496 422.031 31.4525 424.344 33.1269C425.673 34.0892 427.121 34.4628 428.685 34.4628C430.644 34.4628 432.782 33.237 432.782 30.9617C432.782 30.251 433.582 30.1168 433.582 29.2803C433.582 28.5202 433.582 27.7601 433.582 27" stroke="#FFD166" stroke-width="9" stroke-linecap="round"/>
<path d="M251.986 93C250.385 93 249.115 92.4922 248.178 91.4766C247.279 90.4609 246.83 89.3281 246.83 88.0781V49.3477C246.83 48.1367 247.279 47.0234 248.178 46.0078C249.115 44.9922 250.385 44.4844 251.986 44.4844H260.658C265.385 44.5234 268.588 46.9844 270.268 51.8672L274.604 62.8828L278.939 51.8672C280.619 46.9844 283.822 44.5234 288.549 44.4844H297.221C298.822 44.4844 300.072 44.9922 300.971 46.0078C301.908 47.0234 302.377 48.1367 302.377 49.3477V88.0781C302.377 89.3281 301.908 90.4609 300.971 91.4766C300.072 92.4922 298.822 93 297.221 93H291.83C290.229 93 288.959 92.4922 288.021 91.4766C287.123 90.4609 286.713 89.3281 286.791 88.0781V73.7812C285.58 75.2266 283.9 80.1094 281.752 88.4297C280.893 91.5156 279.213 93.0391 276.713 93H272.494C269.994 93.0391 268.314 91.5156 267.455 88.4297C265.307 80.1094 263.627 75.2266 262.416 73.7812V88.0781C262.494 89.3281 262.064 90.4609 261.127 91.4766C260.229 92.4922 258.979 93 257.377 93H251.986ZM306.42 49.3477C306.381 48.1367 306.811 47.0234 307.709 46.0078C308.646 44.9922 309.896 44.4844 311.459 44.4844H316.967C318.529 44.4844 319.76 44.9922 320.658 46.0078C321.596 47.0234 322.045 48.1367 322.006 49.3477V88.0781C322.045 89.3281 321.596 90.4609 320.658 91.4766C319.76 92.4922 318.529 93 316.967 93H311.459C309.896 93 308.646 92.4922 307.709 91.4766C306.811 90.4609 306.381 89.3281 306.42 88.0781V49.3477ZM338.354 93C335.932 92.8828 333.822 92.4141 332.025 91.5938C330.229 90.7734 328.822 89.6211 327.807 88.1367C326.83 86.6133 326.244 84.5234 326.049 81.8672V77.8828C326.283 75.6953 327.377 74.5234 329.33 74.3672H338.236C340.189 74.5234 341.283 75.6953 341.518 77.8828C341.518 78.9375 341.791 79.7188 342.338 80.2266C342.924 80.7344 343.49 80.7344 344.037 80.2266C344.584 79.4453 344.877 78.3125 344.916 76.8281C344.877 76.0469 344.564 75.3828 343.979 74.8359C343.393 74.25 341.205 73.4492 337.416 72.4336C333.627 71.3789 330.854 70.0703 329.096 68.5078C327.338 66.9453 326.381 64.6016 326.225 61.4766C326.186 59.3672 326.674 56.9258 327.689 54.1523C328.705 51.3789 330.326 49.0938 332.553 47.2969C334.818 45.4609 337.318 44.5234 340.053 44.4844H348.842C351.303 44.6016 353.432 45.0703 355.229 45.8906C357.025 46.7109 358.412 47.8828 359.389 49.4062C360.404 50.8906 361.01 52.9609 361.205 55.6172V59.6016C360.971 61.7891 359.877 62.9609 357.924 63.1172H348.842C346.85 62.9609 345.756 61.7891 345.561 59.6016C345.561 58.3125 345.326 57.5312 344.857 57.2578C344.232 56.75 343.646 56.75 343.1 57.2578C342.631 58.0391 342.377 59.1719 342.338 60.6562C342.377 61.4375 342.689 62.1211 343.275 62.707C343.861 63.2539 346.049 64.0547 349.838 65.1094C353.627 66.125 356.4 67.4141 358.158 68.9766C359.916 70.5391 360.893 72.8828 361.088 76.0078C361.088 78.1172 360.58 80.5586 359.564 83.332C358.549 86.1055 356.908 88.4102 354.643 90.2461C352.416 92.043 349.955 92.9609 347.26 93H338.354ZM377.494 93C375.072 92.8828 372.963 92.4141 371.166 91.5938C369.369 90.7734 367.963 89.6211 366.947 88.1367C365.971 86.6133 365.385 84.5234 365.189 81.8672V77.8828C365.424 75.6953 366.518 74.5234 368.471 74.3672H377.377C379.33 74.5234 380.424 75.6953 380.658 77.8828C380.658 78.9375 380.932 79.7188 381.479 80.2266C382.064 80.7344 382.631 80.7344 383.178 80.2266C383.725 79.4453 384.018 78.3125 384.057 76.8281C384.018 76.0469 383.705 75.3828 383.119 74.8359C382.533 74.25 380.346 73.4492 376.557 72.4336C372.768 71.3789 369.994 70.0703 368.236 68.5078C366.479 66.9453 365.521 64.6016 365.365 61.4766C365.326 59.3672 365.814 56.9258 366.83 54.1523C367.846 51.3789 369.467 49.0938 371.693 47.2969C373.959 45.4609 376.459 44.5234 379.193 44.4844H387.982C390.443 44.6016 392.572 45.0703 394.369 45.8906C396.166 46.7109 397.553 47.8828 398.529 49.4062C399.545 50.8906 400.15 52.9609 400.346 55.6172V59.6016C400.111 61.7891 399.018 62.9609 397.064 63.1172H387.982C385.99 62.9609 384.896 61.7891 384.701 59.6016C384.701 58.3125 384.467 57.5312 383.998 57.2578C383.373 56.75 382.787 56.75 382.24 57.2578C381.771 58.0391 381.518 59.1719 381.479 60.6562C381.518 61.4375 381.83 62.1211 382.416 62.707C383.002 63.2539 385.189 64.0547 388.979 65.1094C392.768 66.125 395.541 67.4141 397.299 68.9766C399.057 70.5391 400.033 72.8828 400.229 76.0078C400.229 78.1172 399.721 80.5586 398.705 83.332C397.689 86.1055 396.049 88.4102 393.783 90.2461C391.557 92.043 389.096 92.9609 386.4 93H377.494ZM420.854 62.4141L420.385 71.4375H423.549L423.08 62.4141C422.963 60.8516 422.865 59.6211 422.787 58.7227C422.709 57.7852 422.494 57.1797 422.143 56.9062H421.791C421.439 57.1797 421.225 57.7852 421.146 58.7227C421.068 59.6211 420.971 60.8516 420.854 62.4141ZM419.975 81.75L419.799 88.0781C419.799 89.3281 419.33 90.4609 418.393 91.4766C417.494 92.4922 416.283 93 414.76 93H409.252C407.65 93 406.381 92.4922 405.443 91.4766C404.545 90.4609 404.135 89.3281 404.213 88.0781L405.619 60.3047C406.322 54.4453 407.865 50.3438 410.248 48C412.631 45.6562 415.932 44.4844 420.15 44.4844H423.783C428.002 44.4844 431.303 45.6562 433.686 48C436.068 50.3438 437.611 54.4453 438.314 60.3047L439.721 88.0781C439.799 89.3281 439.369 90.4609 438.432 91.4766C437.533 92.4922 436.283 93 434.682 93H429.174C427.65 93 426.42 92.4922 425.482 91.4766C424.584 90.4609 424.135 89.3281 424.135 88.0781L423.959 81.75H419.975ZM458.354 93C454.916 92.8047 452.064 91.6719 449.799 89.6016C447.572 87.4922 445.99 84.9141 445.053 81.8672C444.154 78.7812 443.666 75.7344 443.588 72.7266V64.7578C443.666 61.75 444.154 58.7227 445.053 55.6758C445.99 52.5898 447.572 50.0117 449.799 47.9414C452.064 45.832 454.916 44.6797 458.354 44.4844H464.213C467.65 44.6797 470.482 45.832 472.709 47.9414C474.975 50.0117 476.557 52.5898 477.455 55.6758C478.393 58.7227 478.9 61.75 478.979 64.7578V72.7266C478.9 75.7344 478.393 78.7812 477.455 81.8672C476.557 84.9141 474.975 87.4922 472.709 89.6016C470.482 91.6719 467.65 92.8047 464.213 93H458.354ZM462.104 80.2266C462.572 79.4062 462.904 78.2734 463.1 76.8281C463.295 75.3438 463.432 73.8594 463.51 72.375V65.1094C463.432 63.625 463.295 62.1602 463.1 60.7148C462.904 59.2305 462.572 58.0781 462.104 57.2578C461.557 56.75 461.01 56.75 460.463 57.2578C459.994 58.0781 459.662 59.2305 459.467 60.7148C459.271 62.1602 459.135 63.625 459.057 65.1094V72.375C459.135 73.8594 459.271 75.3438 459.467 76.8281C459.662 78.2734 459.994 79.4062 460.463 80.2266C461.01 80.7344 461.557 80.7344 462.104 80.2266Z" fill="#FFD166"/>
<path d="M164.365 64.6855L170.775 58.2755C163.316 54.8474 154.185 56.1993 148.049 62.3375C140.178 70.2096 140.178 83.0216 148.049 90.8964C155.92 98.77 168.731 98.77 176.601 90.8964C182.737 84.7599 184.09 75.625 180.662 68.1648L174.252 74.5761C174.886 78.3196 173.774 82.3016 170.891 85.1838C166.168 89.9098 158.483 89.9098 153.76 85.1838C149.036 80.4594 149.036 72.7732 153.76 68.0501C156.642 65.1652 160.623 64.0517 164.365 64.6855Z" fill="#FFD166"/>
<path d="M186.636 62.1912C193.067 73.0374 191.628 87.2918 182.313 96.6078C171.291 107.632 153.36 107.632 142.339 96.6078C131.317 85.5853 131.317 67.649 142.339 56.625C151.652 47.309 165.905 45.8694 176.749 52.3005L182.598 46.4488C168.473 36.9488 149.105 38.4336 136.628 50.9122C122.457 65.0838 122.457 88.1473 136.628 102.319C150.798 116.494 173.854 116.494 188.024 102.319C200.503 89.8388 201.986 70.4675 192.485 56.3381L186.636 62.1912Z" fill="#FFD166"/>
<path d="M221.795 32.8989C221.493 32.1128 220.73 31.6283 219.866 31.6677L206.644 32.288L207.266 19.0656C207.304 18.1994 206.819 17.4389 206.033 17.1342C205.252 16.8325 204.324 17.0497 203.688 17.6835L189.579 31.7961L188.866 47.0361L163.216 72.6887C161.912 72.393 160.487 72.7431 159.471 73.7599C157.893 75.3382 157.893 77.8944 159.471 79.4727C161.047 81.051 163.604 81.051 165.182 79.4727C166.197 78.4557 166.549 77.0312 166.253 75.7247L191.901 50.0703L207.136 49.3582L221.246 35.2437C221.881 34.6086 222.097 33.6834 221.795 32.8989Z" fill="#FFD166"/>
</svg>
