<svg width="621" height="101" viewBox="0 0 621 101" fill="none" xmlns="http://www.w3.org/2000/svg">
<path d="M203.781 32.6563C197.594 26.4688 187.469 26.4688 181.281 32.6563L172 41.9375L162.719 32.6563C156.531 26.4688 146.406 26.4688 140.219 32.6563C134.031 38.8438 134.031 48.9688 140.219 55.1563L149.5 64.4375L172 86.9375L194.5 64.4375L203.781 55.1563C210.25 48.9688 210.25 38.8438 203.781 32.6563Z" stroke="#FFD951" stroke-width="5" stroke-miterlimit="10" stroke-linecap="round" stroke-linejoin="round"/>
<path d="M255.58 58.0703C255.697 59.6328 255.795 60.8828 255.873 61.8203C255.951 62.7188 256.127 63.3047 256.4 63.5781H256.635C256.869 63.3047 257.025 62.7188 257.104 61.8203C257.221 60.8828 257.338 59.6328 257.455 58.0703L258.627 32.4062C258.627 31.1562 259.076 30.0234 259.975 29.0078C260.912 27.9922 262.143 27.4844 263.666 27.4844H269.174C270.775 27.4844 272.025 27.9922 272.924 29.0078C273.861 30.0234 274.291 31.1562 274.213 32.4062L272.807 60.1797C272.26 65.9219 270.756 70.0234 268.295 72.4844C265.834 74.9062 262.494 76.0781 258.275 76H254.76C250.541 76.0781 247.201 74.9062 244.74 72.4844C242.279 70.0234 240.775 65.9219 240.229 60.1797L238.822 32.4062C238.744 31.1562 239.154 30.0234 240.053 29.0078C240.99 27.9922 242.26 27.4844 243.861 27.4844H249.369C250.893 27.4844 252.104 27.9922 253.002 29.0078C253.939 30.0234 254.408 31.1562 254.408 32.4062L255.58 58.0703ZM294.604 45.4141L294.135 54.4375H297.299L296.83 45.4141C296.713 43.8516 296.615 42.6211 296.537 41.7227C296.459 40.7852 296.244 40.1797 295.893 39.9062H295.541C295.189 40.1797 294.975 40.7852 294.896 41.7227C294.818 42.6211 294.721 43.8516 294.604 45.4141ZM293.725 64.75L293.549 71.0781C293.549 72.3281 293.08 73.4609 292.143 74.4766C291.244 75.4922 290.033 76 288.51 76H283.002C281.4 76 280.131 75.4922 279.193 74.4766C278.295 73.4609 277.885 72.3281 277.963 71.0781L279.369 43.3047C280.072 37.4453 281.615 33.3438 283.998 31C286.381 28.6562 289.682 27.4844 293.9 27.4844H297.533C301.752 27.4844 305.053 28.6562 307.436 31C309.818 33.3438 311.361 37.4453 312.064 43.3047L313.471 71.0781C313.549 72.3281 313.119 73.4609 312.182 74.4766C311.283 75.4922 310.033 76 308.432 76H302.924C301.4 76 300.17 75.4922 299.232 74.4766C298.334 73.4609 297.885 72.3281 297.885 71.0781L297.709 64.75H293.725ZM317.338 32.2891C317.338 31.1172 317.787 30.0234 318.686 29.0078C319.623 27.9922 320.893 27.4844 322.494 27.4844H328.002C329.525 27.4844 330.736 27.9922 331.635 29.0078C332.572 30.0234 333.002 31.1172 332.924 32.2891V63.5781H346.635C347.611 63.6562 348.393 64.0859 348.979 64.8672C349.604 65.6094 349.916 66.4688 349.916 67.4453V72.1328C349.916 73.1094 349.604 73.9883 348.979 74.7695C348.393 75.5117 347.611 75.9219 346.635 76H323.549C321.713 75.9609 320.229 75.1992 319.096 73.7148C317.963 72.2305 317.377 70.1406 317.338 67.4453V32.2891ZM368.666 76C365.229 75.8047 362.377 74.6719 360.111 72.6016C357.885 70.4922 356.303 67.9141 355.365 64.8672C354.467 61.7812 353.979 58.7344 353.9 55.7266V47.7578C353.979 44.75 354.467 41.7227 355.365 38.6758C356.303 35.5898 357.885 33.0117 360.111 30.9414C362.377 28.832 365.229 27.6797 368.666 27.4844H374.525C377.963 27.6797 380.795 28.832 383.021 30.9414C385.287 33.0117 386.869 35.5898 387.768 38.6758C388.705 41.7227 389.213 44.75 389.291 47.7578V55.7266C389.213 58.7344 388.705 61.7812 387.768 64.8672C386.869 67.9141 385.287 70.4922 383.021 72.6016C380.795 74.6719 377.963 75.8047 374.525 76H368.666ZM372.416 63.2266C372.885 62.4062 373.217 61.2734 373.412 59.8281C373.607 58.3438 373.744 56.8594 373.822 55.375V48.1094C373.744 46.625 373.607 45.1602 373.412 43.7148C373.217 42.2305 372.885 41.0781 372.416 40.2578C371.869 39.75 371.322 39.75 370.775 40.2578C370.307 41.0781 369.975 42.2305 369.779 43.7148C369.584 45.1602 369.447 46.625 369.369 48.1094V55.375C369.447 56.8594 369.584 58.3438 369.779 59.8281C369.975 61.2734 370.307 62.4062 370.775 63.2266C371.322 63.7344 371.869 63.7344 372.416 63.2266ZM398.432 76C396.83 76 395.561 75.4922 394.623 74.4766C393.725 73.4609 393.275 72.3281 393.275 71.0781V35.2188C393.354 33.0312 393.939 31.2148 395.033 29.7695C396.166 28.2852 397.338 27.5234 398.549 27.4844H413.9C417.338 27.6797 420.287 29.0664 422.748 31.6445C425.248 34.1836 426.869 36.8398 427.611 39.6133C428.393 42.3477 428.744 45.2188 428.666 48.2266C428.549 53.0312 427.123 56.5469 424.389 58.7734C427.006 61.9375 428.51 66.0391 428.9 71.0781C428.979 72.3281 428.549 73.4609 427.611 74.4766C426.713 75.4922 425.502 76 423.979 76H418.471C416.869 76 415.6 75.4922 414.662 74.4766C413.764 73.4609 413.314 72.3281 413.314 71.0781C412.885 67.1719 412.299 64.5156 411.557 63.1094L408.861 64.1641V71.0781C408.939 72.3281 408.51 73.4609 407.572 74.4766C406.674 75.4922 405.463 76 403.939 76H398.432ZM413.197 49.1641V46.8203C413.119 43.7734 412.65 41.7031 411.791 40.6094C411.127 40.0625 410.15 39.8281 408.861 39.9062V52.4453H409.447C411.869 51.7031 413.119 50.6094 413.197 49.1641ZM433.002 35.2188C433.08 33.0312 433.666 31.2148 434.76 29.7695C435.893 28.2852 437.064 27.5234 438.275 27.4844H465.346C466.322 27.5625 467.104 27.9922 467.689 28.7734C468.314 29.5156 468.627 30.375 468.627 31.3516V36.0391C468.627 37.0156 468.314 37.8945 467.689 38.6758C467.104 39.418 466.322 39.8281 465.346 39.9062H448.588V46.7031H461.947C462.924 46.7812 463.705 47.2109 464.291 47.9922C464.916 48.7344 465.229 49.5938 465.229 50.5703V52.9141C465.229 53.8906 464.916 54.7695 464.291 55.5508C463.705 56.293 462.924 56.7031 461.947 56.7812H448.588V63.5781H465.346C466.322 63.6562 467.104 64.0859 467.689 64.8672C468.314 65.6094 468.627 66.4688 468.627 67.4453V72.1328C468.627 73.1094 468.314 73.9883 467.689 74.7695C467.104 75.5117 466.322 75.9219 465.346 76H438.275C437.064 75.9609 435.893 75.2188 434.76 73.7734C433.666 72.2891 433.08 70.4531 433.002 68.2656V35.2188ZM484.916 76C482.494 75.8828 480.385 75.4141 478.588 74.5938C476.791 73.7734 475.385 72.6211 474.369 71.1367C473.393 69.6133 472.807 67.5234 472.611 64.8672V60.8828C472.846 58.6953 473.939 57.5234 475.893 57.3672H484.799C486.752 57.5234 487.846 58.6953 488.08 60.8828C488.08 61.9375 488.354 62.7188 488.9 63.2266C489.486 63.7344 490.053 63.7344 490.6 63.2266C491.146 62.4453 491.439 61.3125 491.479 59.8281C491.439 59.0469 491.127 58.3828 490.541 57.8359C489.955 57.25 487.768 56.4492 483.979 55.4336C480.189 54.3789 477.416 53.0703 475.658 51.5078C473.9 49.9453 472.943 47.6016 472.787 44.4766C472.748 42.3672 473.236 39.9258 474.252 37.1523C475.268 34.3789 476.889 32.0938 479.115 30.2969C481.381 28.4609 483.881 27.5234 486.615 27.4844H495.404C497.865 27.6016 499.994 28.0703 501.791 28.8906C503.588 29.7109 504.975 30.8828 505.951 32.4062C506.967 33.8906 507.572 35.9609 507.768 38.6172V42.6016C507.533 44.7891 506.439 45.9609 504.486 46.1172H495.404C493.412 45.9609 492.318 44.7891 492.123 42.6016C492.123 41.3125 491.889 40.5312 491.42 40.2578C490.795 39.75 490.209 39.75 489.662 40.2578C489.193 41.0391 488.939 42.1719 488.9 43.6562C488.939 44.4375 489.252 45.1211 489.838 45.707C490.424 46.2539 492.611 47.0547 496.4 48.1094C500.189 49.125 502.963 50.4141 504.721 51.9766C506.479 53.5391 507.455 55.8828 507.65 59.0078C507.65 61.1172 507.143 63.5586 506.127 66.332C505.111 69.1055 503.471 71.4102 501.205 73.2461C498.979 75.043 496.518 75.9609 493.822 76H484.916Z" fill="#FFD166"/>
</svg>
