<svg width="616" height="109" viewBox="0 0 616 109" fill="none" xmlns="http://www.w3.org/2000/svg">
<g clip-path="url(#clip0_213_621)">
<path d="M238.469 64C238.469 64 221.975 86.5 201.5 86.5C181.025 86.5 164.531 64 164.531 64C164.531 64 181.025 41.5 201.5 41.5C221.975 41.5 238.469 64 238.469 64Z" stroke="#FFD951" stroke-width="5" stroke-miterlimit="10" stroke-linecap="round" stroke-linejoin="round"/>
<path d="M201.5 75.25C207.782 75.25 212.875 70.2132 212.875 64C212.875 57.7868 207.782 52.75 201.5 52.75C195.218 52.75 190.125 57.7868 190.125 64C190.125 70.2132 195.218 75.25 201.5 75.25Z" stroke="#FFD951" stroke-width="5" stroke-miterlimit="10" stroke-linecap="round" stroke-linejoin="round"/>
</g>
<path d="M281.633 70.0703C281.75 71.6328 281.848 72.8828 281.926 73.8203C282.004 74.7188 282.18 75.3047 282.453 75.5781H282.688C282.922 75.3047 283.078 74.7188 283.156 73.8203C283.273 72.8828 283.391 71.6328 283.508 70.0703L284.68 44.4062C284.68 43.1562 285.129 42.0234 286.027 41.0078C286.965 39.9922 288.195 39.4844 289.719 39.4844H295.227C296.828 39.4844 298.078 39.9922 298.977 41.0078C299.914 42.0234 300.344 43.1562 300.266 44.4062L298.859 72.1797C298.312 77.9219 296.809 82.0234 294.348 84.4844C291.887 86.9062 288.547 88.0781 284.328 88H280.812C276.594 88.0781 273.254 86.9062 270.793 84.4844C268.332 82.0234 266.828 77.9219 266.281 72.1797L264.875 44.4062C264.797 43.1562 265.207 42.0234 266.105 41.0078C267.043 39.9922 268.312 39.4844 269.914 39.4844H275.422C276.945 39.4844 278.156 39.9922 279.055 41.0078C279.992 42.0234 280.461 43.1562 280.461 44.4062L281.633 70.0703ZM304.191 44.3477C304.152 43.1367 304.582 42.0234 305.48 41.0078C306.418 39.9922 307.668 39.4844 309.23 39.4844H314.738C316.301 39.4844 317.531 39.9922 318.43 41.0078C319.367 42.0234 319.816 43.1367 319.777 44.3477V83.0781C319.816 84.3281 319.367 85.4609 318.43 86.4766C317.531 87.4922 316.301 88 314.738 88H309.23C307.668 88 306.418 87.4922 305.48 86.4766C304.582 85.4609 304.152 84.3281 304.191 83.0781V44.3477ZM336.125 88C333.703 87.8828 331.594 87.4141 329.797 86.5938C328 85.7734 326.594 84.6211 325.578 83.1367C324.602 81.6133 324.016 79.5234 323.82 76.8672V72.8828C324.055 70.6953 325.148 69.5234 327.102 69.3672H336.008C337.961 69.5234 339.055 70.6953 339.289 72.8828C339.289 73.9375 339.562 74.7188 340.109 75.2266C340.695 75.7344 341.262 75.7344 341.809 75.2266C342.355 74.4453 342.648 73.3125 342.688 71.8281C342.648 71.0469 342.336 70.3828 341.75 69.8359C341.164 69.25 338.977 68.4492 335.188 67.4336C331.398 66.3789 328.625 65.0703 326.867 63.5078C325.109 61.9453 324.152 59.6016 323.996 56.4766C323.957 54.3672 324.445 51.9258 325.461 49.1523C326.477 46.3789 328.098 44.0938 330.324 42.2969C332.59 40.4609 335.09 39.5234 337.824 39.4844H346.613C349.074 39.6016 351.203 40.0703 353 40.8906C354.797 41.7109 356.184 42.8828 357.16 44.4062C358.176 45.8906 358.781 47.9609 358.977 50.6172V54.6016C358.742 56.7891 357.648 57.9609 355.695 58.1172H346.613C344.621 57.9609 343.527 56.7891 343.332 54.6016C343.332 53.3125 343.098 52.5312 342.629 52.2578C342.004 51.75 341.418 51.75 340.871 52.2578C340.402 53.0391 340.148 54.1719 340.109 55.6562C340.148 56.4375 340.461 57.1211 341.047 57.707C341.633 58.2539 343.82 59.0547 347.609 60.1094C351.398 61.125 354.172 62.4141 355.93 63.9766C357.688 65.5391 358.664 67.8828 358.859 71.0078C358.859 73.1172 358.352 75.5586 357.336 78.332C356.32 81.1055 354.68 83.4102 352.414 85.2461C350.188 87.043 347.727 87.9609 345.031 88H336.125ZM379.484 57.4141L379.016 66.4375H382.18L381.711 57.4141C381.594 55.8516 381.496 54.6211 381.418 53.7227C381.34 52.7852 381.125 52.1797 380.773 51.9062H380.422C380.07 52.1797 379.855 52.7852 379.777 53.7227C379.699 54.6211 379.602 55.8516 379.484 57.4141ZM378.605 76.75L378.43 83.0781C378.43 84.3281 377.961 85.4609 377.023 86.4766C376.125 87.4922 374.914 88 373.391 88H367.883C366.281 88 365.012 87.4922 364.074 86.4766C363.176 85.4609 362.766 84.3281 362.844 83.0781L364.25 55.3047C364.953 49.4453 366.496 45.3438 368.879 43C371.262 40.6562 374.562 39.4844 378.781 39.4844H382.414C386.633 39.4844 389.934 40.6562 392.316 43C394.699 45.3438 396.242 49.4453 396.945 55.3047L398.352 83.0781C398.43 84.3281 398 85.4609 397.062 86.4766C396.164 87.4922 394.914 88 393.312 88H387.805C386.281 88 385.051 87.4922 384.113 86.4766C383.215 85.4609 382.766 84.3281 382.766 83.0781L382.59 76.75H378.605ZM416.984 88C413.547 87.8047 410.695 86.6719 408.43 84.6016C406.203 82.4922 404.621 79.9141 403.684 76.8672C402.785 73.7812 402.297 70.7344 402.219 67.7266V59.7578C402.297 56.75 402.785 53.7227 403.684 50.6758C404.621 47.5898 406.203 45.0117 408.43 42.9414C410.695 40.832 413.547 39.6797 416.984 39.4844H422.844C426.281 39.6797 429.113 40.832 431.34 42.9414C433.605 45.0117 435.188 47.5898 436.086 50.6758C437.023 53.7227 437.531 56.75 437.609 59.7578V67.7266C437.531 70.7344 437.023 73.7812 436.086 76.8672C435.188 79.9141 433.605 82.4922 431.34 84.6016C429.113 86.6719 426.281 87.8047 422.844 88H416.984ZM420.734 75.2266C421.203 74.4062 421.535 73.2734 421.73 71.8281C421.926 70.3438 422.062 68.8594 422.141 67.375V60.1094C422.062 58.625 421.926 57.1602 421.73 55.7148C421.535 54.2305 421.203 53.0781 420.734 52.2578C420.188 51.75 419.641 51.75 419.094 52.2578C418.625 53.0781 418.293 54.2305 418.098 55.7148C417.902 57.1602 417.766 58.625 417.688 60.1094V67.375C417.766 68.8594 417.902 70.3438 418.098 71.8281C418.293 73.2734 418.625 74.4062 419.094 75.2266C419.641 75.7344 420.188 75.7344 420.734 75.2266Z" fill="#FFD951"/>
<path d="M367 29.9752C367 28.4557 367.638 26.775 368.888 25.8753C369.471 25.4548 370.414 25.6219 371.086 25.6219C372.79 25.6219 374.193 25.8417 375.771 26.5663C378.35 27.7496 381.031 29.4525 383.344 31.1269C384.673 32.0892 386.121 32.4628 387.685 32.4628C389.644 32.4628 391.782 31.237 391.782 28.9617C391.782 28.251 392.582 28.1168 392.582 27.2803C392.582 26.5202 392.582 25.7601 392.582 25" stroke="#FFD951" stroke-width="9" stroke-linecap="round"/>
<path d="M367 29.9752C367 28.4557 367.638 26.775 368.888 25.8753C369.471 25.4548 370.414 25.6219 371.086 25.6219C372.79 25.6219 374.193 25.8417 375.771 26.5663C378.35 27.7496 381.031 29.4525 383.344 31.1269C384.673 32.0892 386.121 32.4628 387.685 32.4628C389.644 32.4628 391.782 31.237 391.782 28.9617C391.782 28.251 392.582 28.1168 392.582 27.2803C392.582 26.5202 392.582 25.7601 392.582 25" stroke="#FFD951" stroke-width="9" stroke-linecap="round"/>
<path d="M367 29.9752C367 28.4557 367.638 26.775 368.888 25.8753C369.471 25.4548 370.414 25.6219 371.086 25.6219C372.79 25.6219 374.193 25.8417 375.771 26.5663C378.35 27.7496 381.031 29.4525 383.344 31.1269C384.673 32.0892 386.121 32.4628 387.685 32.4628C389.644 32.4628 391.782 31.237 391.782 28.9617C391.782 28.251 392.582 28.1168 392.582 27.2803C392.582 26.5202 392.582 25.7601 392.582 25" stroke="#FFD166" stroke-width="9" stroke-linecap="round"/>
<defs>
<clipPath id="clip0_213_621">
<rect width="91" height="90" fill="white" transform="translate(156 19)"/>
</clipPath>
</defs>
</svg>
